<svg width="18" height="19" viewBox="0 0 18 19" fill="none" xmlns="http://www.w3.org/2000/svg">
<path fill-rule="evenodd" clip-rule="evenodd" d="M2.81714 4.15123C2.81714 3.54253 3.28174 3.04907 3.85486 3.04907H14.232C14.8052 3.04907 15.2698 3.54253 15.2698 4.15123V15.1728C15.2698 15.7815 14.8052 16.275 14.232 16.275H3.85486C3.28174 16.275 2.81714 15.7815 2.81714 15.1728V4.15123ZM14.232 4.15123H3.85486V15.1728H14.232V4.15123Z" fill="#0079C2"/>
<path fill-rule="evenodd" clip-rule="evenodd" d="M12.1566 1.94678C12.4431 1.94678 12.6754 2.1935 12.6754 2.49786V4.70217C12.6754 5.00653 12.4431 5.25325 12.1566 5.25325C11.87 5.25325 11.6377 5.00653 11.6377 4.70217V2.49786C11.6377 2.1935 11.87 1.94678 12.1566 1.94678Z" fill="#0079C2"/>
<path fill-rule="evenodd" clip-rule="evenodd" d="M5.93024 1.94678C6.21679 1.94678 6.44909 2.1935 6.44909 2.49786V4.70217C6.44909 5.00653 6.21679 5.25325 5.93024 5.25325C5.64368 5.25325 5.41138 5.00653 5.41138 4.70217V2.49786C5.41138 2.1935 5.64368 1.94678 5.93024 1.94678Z" fill="#0079C2"/>
<path fill-rule="evenodd" clip-rule="evenodd" d="M2.81714 6.90655C2.81714 6.6022 3.04944 6.35547 3.336 6.35547H14.7509C15.0375 6.35547 15.2698 6.6022 15.2698 6.90655C15.2698 7.2109 15.0375 7.45763 14.7509 7.45763H3.336C3.04944 7.45763 2.81714 7.2109 2.81714 6.90655Z" fill="#0079C2"/>
</svg>
