<svg width="18" height="19" viewBox="0 0 18 19" fill="none" xmlns="http://www.w3.org/2000/svg">
<path fill-rule="evenodd" clip-rule="evenodd" d="M9.04338 3.40147C5.89125 3.40147 3.33594 6.11547 3.33594 9.46335C3.33594 12.8112 5.89125 15.5252 9.04338 15.5252C12.1955 15.5252 14.7508 12.8112 14.7508 9.46335C14.7508 6.11547 12.1955 3.40147 9.04338 3.40147ZM2.29822 9.46335C2.29822 5.50676 5.31813 2.29932 9.04338 2.29932C12.7686 2.29932 15.7885 5.50676 15.7885 9.46335C15.7885 13.4199 12.7686 16.6274 9.04338 16.6274C5.31813 16.6274 2.29822 13.4199 2.29822 9.46335Z" fill="#0079C2"/>
<path fill-rule="evenodd" clip-rule="evenodd" d="M9.04339 5.05469C9.32995 5.05469 9.56225 5.30141 9.56225 5.60577V8.91224H12.6754C12.962 8.91224 13.1943 9.15897 13.1943 9.46332C13.1943 9.76767 12.962 10.0144 12.6754 10.0144H9.04339C8.75684 10.0144 8.52454 9.76767 8.52454 9.46332V5.60577C8.52454 5.30141 8.75684 5.05469 9.04339 5.05469Z" fill="#0079C2"/>
</svg>
